<svg width="1080" height="1080" viewBox="0 0 1080 1080" fill="none" xmlns="http://www.w3.org/2000/svg">
<rect width="1080" height="1080" rx="100" fill="#45FFCA"/>
<path d="M343.38 522.06H305.1V593.4C305.1 611.38 319.89 626.17 338.16 626.17H343.38V663H318.73C282.77 663 253.48 634 253.48 597.75V522.06H221V485.23H253.48V417.08H305.1V485.23H343.38V522.06ZM366.566 663V485.23H418.186V663H366.566ZM366.566 417.08H418.186V468.7H366.566V417.08ZM441.332 663V417.08H492.952V663H441.332ZM516.098 663V417.08H567.718V663H516.098ZM590.863 485.23H642.773V574.26C642.773 602.97 665.973 626.17 694.683 626.17H723.103V485.23H774.723V663H679.893C630.883 663 590.863 623.27 590.863 574.26V485.23ZM797.885 663V625.88H835.005V663H797.885Z" fill="black"/>
</svg>
